<?xml version="1.0" encoding="UTF-8" standalone="no"?>
<!-- Created with Inkscape (http://www.inkscape.org/) -->

<svg
   xmlns:dc="http://purl.org/dc/elements/1.1/"
   xmlns:cc="http://creativecommons.org/ns#"
   xmlns:rdf="http://www.w3.org/1999/02/22-rdf-syntax-ns#"
   xmlns:svg="http://www.w3.org/2000/svg"
   xmlns="http://www.w3.org/2000/svg"
   xmlns:sodipodi="http://sodipodi.sourceforge.net/DTD/sodipodi-0.dtd"
   xmlns:inkscape="http://www.inkscape.org/namespaces/inkscape"
   width="1052.3622"
   height="744.09448"
   id="svg2"
   version="1.1"
   inkscape:version="0.92.5 (2060ec1f9f, 2020-04-08)"
   sodipodi:docname="title.svg"
   inkscape:export-filename="/home/kristian/projects/LQ_Advanced_Python/title.png"
   inkscape:export-xdpi="90.053078"
   inkscape:export-ydpi="90.053078">
  <defs
     id="defs4" />
  <sodipodi:namedview
     id="base"
     pagecolor="#44667d"
     bordercolor="#666666"
     borderopacity="1.0"
     inkscape:pageopacity="1"
     inkscape:pageshadow="2"
     inkscape:zoom="0.98994949"
     inkscape:cx="501.51269"
     inkscape:cy="266.23425"
     inkscape:document-units="px"
     inkscape:current-layer="g3230"
     showgrid="false"
     showguides="true"
     inkscape:guide-bbox="true"
     inkscape:object-nodes="false"
     inkscape:window-width="1848"
     inkscape:window-height="1016"
     inkscape:window-x="72"
     inkscape:window-y="27"
     inkscape:window-maximized="1"
     inkscape:snap-smooth-nodes="false"
     inkscape:snap-nodes="true" />
  <metadata
     id="metadata7">
    <rdf:RDF>
      <cc:Work
         rdf:about="">
        <dc:format>image/svg+xml</dc:format>
        <dc:type
           rdf:resource="http://purl.org/dc/dcmitype/StillImage" />
        <dc:title></dc:title>
      </cc:Work>
    </rdf:RDF>
  </metadata>
  <g
     inkscape:label="Layer 1"
     inkscape:groupmode="layer"
     id="layer1"
     transform="translate(0,-308.2677)">
    <g
       id="g3230"
       transform="matrix(1.344716,0,0,1.344716,-1052.3615,330.02496)">
      <circle
         r="95.964493"
         cy="338.18433"
         cx="244.45691"
         style="fill:none;stroke:#ffffff;stroke-width:3.10227513"
         id="path3150"
         transform="matrix(0.4835161,0,0,0.4835161,1062.0208,197.96463)"
         inkscape:export-filename="/home/krother/Desktop/softdev_cover/16.png"
         inkscape:export-xdpi="300.12769"
         inkscape:export-ydpi="300.12769" />
      <circle
         r="95.964493"
         cy="338.18433"
         cx="244.45691"
         style="fill:none;stroke:#ffffff;stroke-width:3.10227513"
         id="path3152"
         transform="matrix(0.4835161,0,0,0.4835161,1183.6107,57.03912)"
         inkscape:export-filename="/home/krother/Desktop/softdev_cover/16.png"
         inkscape:export-xdpi="300.12769"
         inkscape:export-ydpi="300.12769" />
      <path
         inkscape:export-ydpi="300.12769"
         inkscape:export-xdpi="300.12769"
         inkscape:export-filename="/home/krother/Desktop/softdev_cover/16.png"
         sodipodi:nodetypes="cscc"
         inkscape:connector-curvature="0"
         id="use3154"
         d="m 1300.1785,408.98993 c 55.3521,1.31998 94.2763,-92.75634 94.0153,-56.34039 -0.4032,56.26794 -39.7561,103.18944 -94.0153,102.56879 z"
         style="fill:#ffcc00;fill-opacity:1;stroke:#ffffff;stroke-width:1.5;stroke-linecap:butt;stroke-linejoin:miter;stroke-opacity:1" />
      <path
         sodipodi:nodetypes="cccc"
         inkscape:connector-curvature="0"
         id="path3156"
         d="m 1060.4554,422.75513 -94.01524,-65.456 94.01524,97.9192 z"
         style="fill:none;stroke:#ffffff;stroke-width:1.5;stroke-linecap:butt;stroke-linejoin:miter;stroke-miterlimit:4;stroke-dasharray:1.5, 4.5;stroke-dashoffset:0;stroke-opacity:1"
         inkscape:export-filename="/home/krother/Desktop/softdev_cover/16.png"
         inkscape:export-xdpi="300.12769"
         inkscape:export-ydpi="300.12769" />
      <path
         style="fill:none;stroke:#ffffff;stroke-width:1.5"
         d="m 1153.9643,361.4822 c 0,51.74922 -41.951,93.70025 -93.7002,93.70025 -51.7492,0 -93.70027,-41.95103 -93.70027,-93.70025 0,-51.74923 41.95107,-93.70026 93.70027,-93.70026 51.7492,0 93.7002,41.95103 93.7002,93.70026 z"
         id="path3158"
         inkscape:connector-curvature="0"
         inkscape:export-filename="/home/krother/Desktop/softdev_cover/16.png"
         inkscape:export-xdpi="300.12769"
         inkscape:export-ydpi="300.12769" />
      <rect
         style="fill:none;stroke:#ffffff;stroke-width:1.5;stroke-linecap:butt;stroke-linejoin:round;stroke-miterlimit:4;stroke-dasharray:none;stroke-dashoffset:0"
         id="rect3160"
         width="119.47954"
         height="46.237"
         x="1060.5994"
         y="408.83737"
         inkscape:export-filename="/home/krother/Desktop/softdev_cover/16.png"
         inkscape:export-xdpi="300.12769"
         inkscape:export-ydpi="300.12769" />
      <path
         style="fill:#ffcc00;fill-opacity:1;stroke:#ffffff;stroke-width:1.5;stroke-linecap:butt;stroke-linejoin:miter;stroke-opacity:1"
         d="m 1060.4554,408.98993 c -55.3521,1.31998 -94.27621,-92.75634 -94.01524,-56.34039 0.40324,56.26794 39.75614,103.18944 94.01524,102.56879 z"
         id="path3162"
         inkscape:connector-curvature="0"
         sodipodi:nodetypes="cscc"
         inkscape:export-filename="/home/krother/Desktop/softdev_cover/16.png"
         inkscape:export-xdpi="300.12769"
         inkscape:export-ydpi="300.12769" />
      <path
         inkscape:export-ydpi="300.12769"
         inkscape:export-xdpi="300.12769"
         inkscape:export-filename="/home/krother/Desktop/softdev_cover/16.png"
         inkscape:connector-curvature="0"
         id="use3164"
         d="m 1393.8756,361.4822 c 0,51.74922 -41.951,93.70025 -93.7003,93.70025 -51.7492,0 -93.7002,-41.95103 -93.7002,-93.70025 0,-51.74923 41.951,-93.70026 93.7002,-93.70026 51.7493,0 93.7003,41.95103 93.7003,93.70026 z"
         style="fill:none;stroke:#ffffff;stroke-width:1.5" />
      <path
         inkscape:export-ydpi="300.12769"
         inkscape:export-xdpi="300.12769"
         inkscape:export-filename="/home/krother/Desktop/softdev_cover/16.png"
         inkscape:connector-curvature="0"
         id="use3166"
         d="m 1153.9643,220.55669 c 0,51.74922 -41.951,93.70025 -93.7002,93.70025 -51.7492,0 -93.70027,-41.95103 -93.70027,-93.70025 0,-51.74923 41.95107,-93.70026 93.70027,-93.70026 51.7492,0 93.7002,41.95103 93.7002,93.70026 z"
         style="fill:none;fill-opacity:1;stroke:#ffffff;stroke-width:1.5" />
      <path
         inkscape:export-ydpi="300.12769"
         inkscape:export-xdpi="300.12769"
         inkscape:export-filename="/home/krother/Desktop/softdev_cover/16.png"
         inkscape:connector-curvature="0"
         id="use3168"
         d="m 1393.8756,220.56144 c 0,51.74922 -41.951,93.70025 -93.7003,93.70025 -51.7492,0 -93.7002,-41.95103 -93.7002,-93.70025 0,-51.74923 41.951,-93.70026 93.7002,-93.70026 51.7493,0 93.7003,41.95103 93.7003,93.70026 z"
         style="fill:none;stroke:#ffffff;stroke-width:1.5" />
      <path
         style="fill:none;stroke:#ffffff;stroke-width:1.5;stroke-linecap:butt;stroke-linejoin:miter;stroke-miterlimit:4;stroke-dasharray:1, 4;stroke-dashoffset:0;stroke-opacity:1"
         d="M 1180.2197,45.05191 V 487.49872"
         id="path3170"
         inkscape:connector-curvature="0"
         inkscape:export-filename="/home/krother/Desktop/softdev_cover/16.png"
         inkscape:export-xdpi="300.12769"
         inkscape:export-ydpi="300.12769" />
      <path
         inkscape:export-ydpi="300.12769"
         inkscape:export-xdpi="300.12769"
         inkscape:export-filename="/home/krother/Desktop/softdev_cover/16.png"
         inkscape:connector-curvature="0"
         id="use3172"
         d="M 1060.2641,45.05191 V 487.49872"
         style="fill:none;stroke:#ffffff;stroke-width:1.5;stroke-linecap:butt;stroke-linejoin:miter;stroke-miterlimit:4;stroke-dasharray:1, 4;stroke-dashoffset:0;stroke-opacity:1" />
      <path
         style="fill:none;stroke:#ffffff;stroke-width:1.5;stroke-linecap:butt;stroke-linejoin:miter;stroke-miterlimit:4;stroke-dasharray:1, 4;stroke-dashoffset:0;stroke-opacity:1"
         d="M 1300.1753,46.56714 V 489.01395"
         id="use3174"
         inkscape:connector-curvature="0"
         inkscape:export-filename="/home/krother/Desktop/softdev_cover/16.png"
         inkscape:export-xdpi="300.12769"
         inkscape:export-ydpi="300.12769" />
      <rect
         inkscape:export-ydpi="300.12769"
         inkscape:export-xdpi="300.12769"
         inkscape:export-filename="/home/krother/Desktop/softdev_cover/16.png"
         y="408.83737"
         x="1180.5551"
         height="46.237"
         width="119.47954"
         id="use3176"
         style="fill:none;stroke:#ffffff;stroke-width:1.5;stroke-linecap:butt;stroke-linejoin:round;stroke-miterlimit:4;stroke-dasharray:none;stroke-dashoffset:0" />
      <rect
         inkscape:export-ydpi="300.12769"
         inkscape:export-xdpi="300.12769"
         inkscape:export-filename="/home/krother/Desktop/softdev_cover/16.png"
         y="267.87595"
         x="1060.5995"
         height="46.237"
         width="119.47954"
         id="use3178"
         style="fill:none;stroke:#ffffff;stroke-width:1.5;stroke-linecap:butt;stroke-linejoin:round;stroke-miterlimit:4;stroke-dasharray:none;stroke-dashoffset:0" />
      <rect
         style="fill:none;stroke:#ffffff;stroke-width:1.5;stroke-linecap:butt;stroke-linejoin:round;stroke-miterlimit:4;stroke-dasharray:none;stroke-dashoffset:0"
         id="use3180"
         width="119.47954"
         height="46.237"
         x="1180.3604"
         y="267.87595"
         inkscape:export-filename="/home/krother/Desktop/softdev_cover/16.png"
         inkscape:export-xdpi="300.12769"
         inkscape:export-ydpi="300.12769" />
      <path
         inkscape:export-ydpi="300.12769"
         inkscape:export-xdpi="300.12769"
         inkscape:export-filename="/home/krother/Desktop/softdev_cover/16.png"
         sodipodi:nodetypes="cscc"
         inkscape:connector-curvature="0"
         id="use3182"
         d="m 1300.1785,408.98993 c 55.3521,1.31998 94.2763,-92.75634 94.0153,-56.34039 -0.4032,56.26794 -39.7561,103.18944 -94.0153,102.56879 z"
         style="fill:#ffcc00;fill-opacity:1;stroke:#ffffff;stroke-width:1.5;stroke-linecap:butt;stroke-linejoin:miter;stroke-opacity:1" />
      <rect
         transform="scale(-1,1)"
         y="108.92499"
         x="-1300.1014"
         height="49.39732"
         width="94.114601"
         id="rect3184"
         style="fill:none;stroke:#ffffff;stroke-width:1.64023507;stroke-linecap:butt;stroke-linejoin:round;stroke-miterlimit:4;stroke-dasharray:1.64023508, 4.92070524;stroke-dashoffset:0"
         inkscape:export-filename="/home/krother/Desktop/softdev_cover/16.png"
         inkscape:export-xdpi="300.12769"
         inkscape:export-ydpi="300.12769" />
      <rect
         style="fill:none;stroke:#ffffff;stroke-width:1.64948678;stroke-linecap:butt;stroke-linejoin:round;stroke-miterlimit:4;stroke-dasharray:1.64948674, 4.94846024;stroke-dashoffset:0"
         id="rect3186"
         width="94.114601"
         height="49.956139"
         x="-1153.9524"
         y="110.38646"
         transform="scale(-1,1)"
         inkscape:export-filename="/home/krother/Desktop/softdev_cover/16.png"
         inkscape:export-xdpi="300.12769"
         inkscape:export-ydpi="300.12769" />
      <path
         style="fill:none;stroke:#ffffff;stroke-width:1.5;stroke-linecap:butt;stroke-linejoin:miter;stroke-miterlimit:4;stroke-dasharray:1.5, 4.5;stroke-dashoffset:0;stroke-opacity:1"
         d="m 1300.1786,422.75513 94.0152,-65.456 -94.0152,97.9192 z"
         id="path3188"
         inkscape:connector-curvature="0"
         sodipodi:nodetypes="cccc"
         inkscape:export-filename="/home/krother/Desktop/softdev_cover/16.png"
         inkscape:export-xdpi="300.12769"
         inkscape:export-ydpi="300.12769" />
      <path
         inkscape:export-ydpi="300.12769"
         inkscape:export-xdpi="300.12769"
         inkscape:export-filename="/home/krother/Desktop/softdev_cover/16.png"
         inkscape:connector-curvature="0"
         id="path3190"
         d="M 1401.4431,314.25694 H 958.99628"
         style="fill:none;stroke:#ffffff;stroke-width:1.5;stroke-linecap:butt;stroke-linejoin:miter;stroke-miterlimit:4;stroke-dasharray:1, 4;stroke-dashoffset:0;stroke-opacity:1" />
      <circle
         r="95.964493"
         cy="338.18433"
         cx="244.45691"
         style="fill:none;stroke:#ffffff;stroke-width:3.10227513"
         id="path3192"
         transform="matrix(0.4835161,0,0,0.4835161,942.06523,197.96463)"
         inkscape:export-filename="/home/krother/Desktop/softdev_cover/16.png"
         inkscape:export-xdpi="300.12769"
         inkscape:export-ydpi="300.12769" />
      <path
         style="fill:none;stroke:#ffffff;stroke-width:1.5;stroke-linecap:butt;stroke-linejoin:miter;stroke-miterlimit:4;stroke-dasharray:1, 4;stroke-dashoffset:0;stroke-opacity:1"
         d="M 1401.4431,362.23194 H 958.99628"
         id="path3194"
         inkscape:connector-curvature="0"
         inkscape:export-filename="/home/krother/Desktop/softdev_cover/16.png"
         inkscape:export-xdpi="300.12769"
         inkscape:export-ydpi="300.12769" />
      <circle
         r="95.964493"
         cy="338.18433"
         cx="244.45691"
         inkscape:export-ydpi="300.12769"
         inkscape:export-xdpi="300.12769"
         inkscape:export-filename="/home/krother/Desktop/softdev_cover/16.png"
         transform="matrix(0.4835161,0,0,0.4835161,1181.9765,197.96463)"
         id="path3196"
         style="fill:none;stroke:#ffffff;stroke-width:3.10227513" />
      <path
         inkscape:export-ydpi="300.12769"
         inkscape:export-xdpi="300.12769"
         inkscape:export-filename="/home/krother/Desktop/softdev_cover/16.png"
         inkscape:connector-curvature="0"
         id="path3198"
         d="M 1401.4431,408.70694 H 958.99628"
         style="fill:none;stroke:#ffffff;stroke-width:1.5;stroke-linecap:butt;stroke-linejoin:miter;stroke-miterlimit:4;stroke-dasharray:1, 4;stroke-dashoffset:0;stroke-opacity:1" />
      <circle
         r="95.964493"
         cy="338.18433"
         cx="244.45691"
         inkscape:export-ydpi="300.12769"
         inkscape:export-xdpi="300.12769"
         inkscape:export-filename="/home/krother/Desktop/softdev_cover/16.png"
         transform="matrix(0.4835161,0,0,0.4835161,1062.0208,150.73937)"
         id="path3200"
         style="fill:none;stroke:#ffffff;stroke-width:3.10227513" />
      <circle
         r="95.964493"
         cy="338.18433"
         cx="244.45691"
         inkscape:export-ydpi="300.12769"
         inkscape:export-xdpi="300.12769"
         inkscape:export-filename="/home/krother/Desktop/softdev_cover/16.png"
         transform="matrix(0.4835161,0,0,0.4835161,1062.0208,245.18937)"
         id="path3202"
         style="fill:none;stroke:#ffffff;stroke-width:3.10227513" />
      <circle
         r="95.964493"
         cy="338.18433"
         cx="244.45691"
         inkscape:export-ydpi="300.12769"
         inkscape:export-xdpi="300.12769"
         inkscape:export-filename="/home/krother/Desktop/softdev_cover/16.png"
         transform="matrix(0.4835161,0,0,0.4835161,942.06523,57.03912)"
         id="path3204"
         style="fill:none;stroke:#ffffff;stroke-width:3.10227513" />
      <path
         style="fill:none;stroke:#ffffff;stroke-width:1.5;stroke-linecap:butt;stroke-linejoin:miter;stroke-miterlimit:4;stroke-dasharray:1, 4;stroke-dashoffset:0;stroke-opacity:1"
         d="M 1401.4431,176.27778 H 958.99628"
         id="path3206"
         inkscape:connector-curvature="0"
         inkscape:export-filename="/home/krother/Desktop/softdev_cover/16.png"
         inkscape:export-xdpi="300.12769"
         inkscape:export-ydpi="300.12769" />
      <circle
         r="95.964493"
         cy="338.18433"
         cx="244.45691"
         style="fill:none;stroke:#ffffff;stroke-width:3.10227513"
         id="path3208"
         transform="matrix(0.4835161,0,0,0.4835161,1181.9765,57.04387)"
         inkscape:export-filename="/home/krother/Desktop/softdev_cover/16.png"
         inkscape:export-xdpi="300.12769"
         inkscape:export-ydpi="300.12769" />
      <path
         id="path3210"
         style="fill:#ff6600;fill-opacity:1;stroke:#000000;stroke-width:2;stroke-linecap:butt;stroke-linejoin:round;stroke-miterlimit:4;stroke-dashoffset:0"
         d="m 1060.5994,408.83737 h 119.4795 v 46.237 l -120.1562,-0.15256 m 0.6767,-46.08444 c -55.3521,1.31998 -92.84563,-92.58102 -94.15924,-56.18783 -2.12214,58.79332 36.19294,103.398 93.48254,102.27227"
         inkscape:connector-curvature="0"
         sodipodi:nodetypes="cccccsc"
         inkscape:export-filename="/home/krother/Desktop/softdev_cover/16.png"
         inkscape:export-xdpi="300.12769"
         inkscape:export-ydpi="300.12769" />
      <path
         inkscape:connector-curvature="0"
         style="fill:#ffcc00;fill-opacity:1;stroke:#000000;stroke-width:2;stroke-linecap:butt;stroke-linejoin:miter;stroke-opacity:1"
         d="m 1265.6501,110.35831 c -3.8188,-0.0621 -7.4263,0.51717 -10.2187,2.125 -8.1313,5.1565 -7.7201,14.13031 -15.875,19.5625 -14.3222,7.88863 -24.0897,1.76035 -34.4688,13 -1.9525,5.8746 -1.8478,11.72095 0,17.4375 1.8478,5.71655 0.6841,7.50798 9.875,11.71875 9.1909,4.21078 84.25,0 84.25,0 0.3209,-0.007 0.6463,-0.0312 0.9688,-0.0312 25.6262,0 46.4062,20.74878 46.4062,46.375 0,25.62622 -20.78,46.40625 -46.4062,46.40625 -0.3225,0 -0.6479,-0.0247 -0.9688,-0.0312 v 0.0312 h -119.4687 v 47.46875 h 116.4062 c 1.334,0.0562 2.6834,0.0937 4.0313,0.0937 51.8907,0 93.9687,-42.07797 93.9687,-93.96875 0,-51.89078 -42.078,-93.9375 -93.9687,-93.9375 -0.3222,0 -0.6474,-0.003 -0.9688,0 -0.043,-0.0499 -5.2627,-6.01744 -11.4375,-10.03125 -4.2629,-2.77102 -13.7236,-6.08215 -22.125,-6.21875 z"
         id="path3212"
         inkscape:export-filename="/home/krother/Desktop/softdev_cover/16.png"
         inkscape:export-xdpi="300.12769"
         inkscape:export-ydpi="300.12769" />
      <path
         style="fill:#000000;stroke:#000000;stroke-width:1.25026155px;stroke-linecap:butt;stroke-linejoin:miter;stroke-opacity:1"
         d="m 1264.7545,137.11356 c -2.5794,-11.41067 4.2307,-14.08901 13.5333,-10.80583 -1.6235,6.59471 -6.1066,11.23251 -13.5333,10.80583 z"
         id="path3214"
         inkscape:connector-curvature="0"
         sodipodi:nodetypes="ccc"
         inkscape:export-filename="/home/krother/Desktop/softdev_cover/16.png"
         inkscape:export-xdpi="300.12769"
         inkscape:export-ydpi="300.12769" />
      <path
         style="fill:#ffcc00;fill-opacity:1;stroke:#000000;stroke-width:2"
         d="m 1390.6814,344.10831 c -0.1339,-0.002 -0.2648,0.0122 -0.4063,0.0312 -10.9049,1.47151 -44.4115,65.78061 -90.25,64.6875 l -119.3125,-3.2e-4 v -46.53093 c -0.083,-4.4e-4 -0.1668,0 -0.25,0 -25.6262,0 -46.4062,20.78003 -46.4062,46.40625 0,25.62622 20.78,46.40625 46.4062,46.40625 0.083,0 0.167,4.4e-4 0.25,0 v -0.0312 h 119.3125 c 57.2896,1.12573 96.1534,-43.80043 94.0313,-102.59375 -0.2117,-5.86414 -1.3674,-8.34072 -3.375,-8.375 z"
         id="path3216"
         inkscape:connector-curvature="0"
         sodipodi:nodetypes="cscccssscccsc"
         inkscape:export-filename="/home/krother/Desktop/softdev_cover/16.png"
         inkscape:export-xdpi="300.12769"
         inkscape:export-ydpi="300.12769" />
      <path
         style="fill:#ff6600;fill-opacity:1;stroke:#000000;stroke-width:2"
         d="m 1179.9756,315.07595 c -25.5116,0.13424 -46.1563,20.86318 -46.1563,46.40625 0,25.37323 20.3793,47.18872 45.6563,47.59343 h 46.6562 c 0,-8.49505 -2.2828,-17.83059 -10.149,-34.29805 -7.8662,-16.46747 -21.1367,-16.67352 -21.1367,-40.87127 -14.0967,-12.85268 -14.8705,-18.83036 -14.8705,-18.83036 z"
         id="path3218"
         inkscape:connector-curvature="0"
         sodipodi:nodetypes="csccccc"
         inkscape:export-filename="/home/krother/Desktop/softdev_cover/16.png"
         inkscape:export-xdpi="300.12769"
         inkscape:export-ydpi="300.12769" />
      <path
         inkscape:connector-curvature="0"
         id="path3220"
         d="m 1220.1456,384.01254 c 3.9584,-6.83176 6.2245,-14.76582 6.2245,-23.22836 0,-25.54307 -20.6447,-46.27201 -46.1563,-46.40625 v -47.21875 c -0.083,-4.4e-4 -0.1668,0 -0.25,0 -25.6262,0 -46.4062,20.78003 -46.4062,46.40625 0,25.54198 20.6464,46.2287 46.1562,46.40625 0.8621,0.006 0,0 4.9988,0.23038 24.109,0.49013 33.6311,19.24192 35.433,23.81048"
         style="fill:#ffcc00;fill-opacity:1;stroke:#000000;stroke-width:2"
         sodipodi:nodetypes="csccssscc"
         inkscape:export-filename="/home/krother/Desktop/softdev_cover/16.png"
         inkscape:export-xdpi="300.12769"
         inkscape:export-ydpi="300.12769" />
      <path
         style="fill:#ff6600;fill-opacity:1;stroke:#000000;stroke-width:2;stroke-linecap:butt;stroke-linejoin:miter;stroke-opacity:1"
         d="m 1093.8064,110.29581 c -8.4014,0.1366 -17.8621,3.47898 -22.125,6.25 -6.2006,4.03057 -11.4063,10.0625 -11.4063,10.0625 -51.8908,0 -93.96874,42.04672 -93.96874,93.9375 0,51.89078 42.07794,93.96875 93.96874,93.96875 1.3027,0 2.5852,-0.0412 3.875,-0.0937 h 113.9063 c 28.6258,-1.03629 41.351,22.27821 42.3437,23.75 4.1964,-6.97693 6.625,-15.14193 6.625,-23.875 0,-25.62622 -21.655,-47.34375 -47.2812,-47.34375 h -119.4688 v 0.9375 h -0.062 v -0.9375 c -25.5972,-0.0342 -46.3437,-20.80114 -46.3437,-46.4063 0,-25.60516 20.7465,-46.34094 46.3437,-46.375 h 0.062 c 0,0 75.0591,4.21078 84.25,0 9.1909,-4.21077 7.9959,-6.0022 9.8438,-11.71875 1.8478,-5.71655 1.9525,-11.5629 0,-17.4375 -10.3791,-11.23965 -20.1466,-5.11137 -34.4688,-13 -8.1549,-5.43219 -7.7438,-14.406 -15.875,-19.5625 -2.7924,-1.60783 -6.3999,-2.21834 -10.2187,-2.15625 z"
         id="path3222"
         inkscape:connector-curvature="0"
         sodipodi:nodetypes="sscsscccssccccsccsscccs"
         inkscape:export-filename="/home/krother/Desktop/softdev_cover/16.png"
         inkscape:export-xdpi="300.12769"
         inkscape:export-ydpi="300.12769" />
      <path
         style="fill:none;stroke:#000000;stroke-width:3;stroke-linecap:butt;stroke-linejoin:miter;stroke-opacity:1"
         d="m 1152.9423,164.3832 c -11.4254,-1.19233 -20.3731,2.27982 -35.4114,-5.71429"
         id="path3224"
         inkscape:connector-curvature="0"
         sodipodi:nodetypes="cc"
         inkscape:export-filename="/home/krother/Desktop/softdev_cover/16.png"
         inkscape:export-xdpi="300.12769"
         inkscape:export-ydpi="300.12769" />
      <path
         inkscape:export-ydpi="300.12769"
         inkscape:export-xdpi="300.12769"
         inkscape:export-filename="/home/krother/Desktop/softdev_cover/16.png"
         sodipodi:nodetypes="cc"
         inkscape:connector-curvature="0"
         id="path3226"
         d="m 1205.9868,164.3832 c 11.4254,-1.19233 20.3731,2.27982 35.4114,-5.71429"
         style="fill:none;stroke:#000000;stroke-width:3;stroke-linecap:butt;stroke-linejoin:miter;stroke-opacity:1" />
      <path
         inkscape:export-ydpi="300.12769"
         inkscape:export-xdpi="300.12769"
         inkscape:export-filename="/home/krother/Desktop/softdev_cover/16.png"
         sodipodi:nodetypes="ccc"
         inkscape:connector-curvature="0"
         id="path3228"
         d="m 1094.8993,137.11356 c 2.5794,-11.41067 -4.2307,-14.08901 -13.5332,-10.80583 1.6234,6.59471 6.1065,11.23251 13.5332,10.80583 z"
         style="fill:#000000;stroke:#000000;stroke-width:1.25026155px;stroke-linecap:butt;stroke-linejoin:miter;stroke-opacity:1" />
    </g>
  </g>
</svg>
